PathFileType	4	(X/Y/Z)	C:/Users/CLatella/Desktop/xsens/3Novembre/Meri/Meri-020.trc	
DataRate	CameraRate	NumFrames	NumMarkers	Units	OrigDataRate	OrigDataStartFrame	OrigNumFrames	
240.00	240.00	4	64	mm	240.00	620	1238	
Frame#	Time	pHipOrigin			pRightASI			pLeftASI			pRightCSI			pLeftCSI			pRightIschialTub			pLeftIschialTub			pSacrum			pL5SpinalProcess			pL3SpinalProcess			pT12SpinalProcess			pPX			pIJ			pT4SpinalProcess			pT8SpinalProcess			pC7SpinalProcess			pTopOfHead			pRightAuricularis			pLeftAuricularis			pBackOfHead			pRightAcromion			pLeftAcromion			pRightArmLatEpicondyle			pRightArmMedEpicondyle			pLeftArmLatEpicondyle			pLeftArmMedEpicondyle			pRightUlnarStyloid			pRightRadialStyloid			pRightOlecranon			pLeftUlnarStyloid			pLeftRadialStyloid			pLeftOlecranon			pRightTopOfHand			pRightPinky			pRightBallHand			pLeftTopOfHand			pLeftPinky			pLeftBallHand			pRightGreaterTrochanter			pRightKneeLatEpicondyle			pRightKneeMedEpicondyle			pRightPatella			pLeftGreaterTrochanter			pLeftKneeLatEpicondyle			pLeftKneeMedEpicondyle			pLeftPatella			pRightLatMalleolus			pRightMedMalleolus			pRightTibialTub			pLeftLatMalleolus			pLeftMedMalleolus			pLeftTibialTub			pRightHeelFoot			pRightFirstMetatarsal			pRightFifthMetatarsal			pRightPivotFoot			pRightHeelCenter			pRightToe			pLeftHeelFoot			pLeftFirstMetatarsal			pLeftFifthMetatarsal			pLeftPivotFoot			pLeftHeelCenter			pLeftToe			
		X1	Y1	Z1	X2	Y2	Z2	X3	Y3	Z3	X4	Y4	Z4	X5	Y5	Z5	X6	Y6	Z6	X7	Y7	Z7	X8	Y8	Z8	X9	Y9	Z9	X10	Y10	Z10	X11	Y11	Z11	X12	Y12	Z12	X13	Y13	Z13	X14	Y14	Z14	X15	Y15	Z15	X16	Y16	Z16	X17	Y17	Z17	X18	Y18	Z18	X19	Y19	Z19	X20	Y20	Z20	X21	Y21	Z21	X22	Y22	Z22	X23	Y23	Z23	X24	Y24	Z24	X25	Y25	Z25	X26	Y26	Z26	X27	Y27	Z27	X28	Y28	Z28	X29	Y29	Z29	X30	Y30	Z30	X31	Y31	Z31	X32	Y32	Z32	X33	Y33	Z33	X34	Y34	Z34	X35	Y35	Z35	X36	Y36	Z36	X37	Y37	Z37	X38	Y38	Z38	X39	Y39	Z39	X40	Y40	Z40	X41	Y41	Z41	X42	Y42	Z42	X43	Y43	Z43	X44	Y44	Z44	X45	Y45	Z45	X46	Y46	Z46	X47	Y47	Z47	X48	Y48	Z48	X49	Y49	Z49	X50	Y50	Z50	X51	Y51	Z51	X52	Y52	Z52	X53	Y53	Z53	X54	Y54	Z54	X55	Y55	Z55	X56	Y56	Z56	X57	Y57	Z57	X58	Y58	Z58	X59	Y59	Z59	X60	Y60	Z60	X61	Y61	Z61	X62	Y62	Z62	X63	Y63	Z63	X64	Y64	Z64	

620	2.579	178.86590	107.23917	932.05157	276.56154	-11.10064	953.04734	274.25100	228.39181	947.12031	293.53898	11.75361	1030.50065	291.63028	209.70658	1025.52796	108.74605	57.01005	929.08805	107.79169	155.96142	926.62682	140.13925	108.39444	992.47720	215.48293	109.29857	1029.24492	296.55273	108.49490	1097.85790	374.10649	106.68665	1150.64870	509.82558	111.75979	1066.86653	609.12855	107.89215	1115.73946	530.51998	101.41260	1226.99697	456.33156	104.07474	1194.19735	571.85854	101.11122	1246.03380	819.63880	104.82818	1285.36321	726.61446	37.72207	1264.56835	726.31309	167.91595	1255.22573	699.23959	105.88299	1303.24477	576.88145	-61.27953	1236.84188	545.68917	279.42460	1212.33006	412.23040	-181.07598	995.13935	387.06561	-126.62761	984.13917	349.49422	325.23356	969.77364	330.90945	267.16869	972.23487	413.98842	-101.81443	766.34570	436.39060	-62.73617	780.05825	389.57706	-175.45032	983.83779	393.09310	239.99474	754.03956	405.49969	198.00319	771.36861	334.82732	319.50744	962.89225	587.93186	-63.84121	720.98880	515.40101	-103.01993	722.44545	451.50957	-89.30738	745.80199	559.95424	253.50637	712.09825	483.35483	275.75787	733.09402	422.97943	243.30986	743.99374	174.94803	-42.89567	911.25671	168.51870	-47.26560	530.21860	175.24940	25.76754	523.53813	213.17239	-11.85407	528.86242	167.66481	256.06806	905.02830	153.24905	246.32361	524.29156	165.30404	173.74253	519.97186	200.36396	214.27743	523.13630	155.15775	-74.74093	104.37611	162.13960	-12.50705	98.95137	237.38283	-18.53455	491.49195	151.08920	261.89464	97.34404	153.60065	199.15846	94.07914	225.72967	212.92124	487.02156	120.24852	-37.57138	8.13712	268.02259	-33.75397	9.19193	255.06348	-99.20251	10.19651	280.27850	-69.26596	9.89514	159.07563	-45.20621	12.85865	355.67241	-84.23424	9.74445	110.90590	224.67486	3.51604	258.17768	212.16781	0.35160	249.08621	278.26933	0.15069	272.49298	246.87613	-0.05023	150.23530	230.09960	6.88139	348.59010	257.37402	-2.56169 
621	2.583	178.76544	107.33963	932.05157	276.41085	-11.00018	953.14780	274.15054	228.44204	947.17053	293.33807	11.80384	1030.60110	291.42936	209.75681	1025.62842	108.64559	57.06028	929.03782	107.69124	156.06188	926.57660	139.93833	108.44467	992.47720	215.28201	109.34880	1029.29515	296.25136	108.54513	1098.00859	373.80512	106.73688	1150.84962	509.57443	111.81002	1067.21813	608.82718	107.99261	1116.19153	530.11814	101.51305	1227.34857	455.97996	104.12497	1194.49873	571.45671	101.21168	1246.43564	819.18673	104.92863	1285.91573	726.16240	37.77230	1265.07064	725.86103	168.01641	1255.77825	698.78753	105.93322	1303.74706	576.42939	-61.22930	1237.19348	545.28734	279.47483	1212.63144	412.18017	-180.87506	995.18957	387.01538	-126.42670	984.18940	349.49422	325.13310	969.77364	330.90945	267.11847	972.23487	414.03864	-101.71397	766.39593	436.44083	-62.63571	780.10848	389.52683	-175.24940	983.88802	393.19356	239.94451	754.03956	405.60015	197.95297	771.36861	334.82732	319.40698	962.89225	587.98209	-63.79098	720.93857	515.45124	-102.91947	722.44545	451.55980	-89.20692	745.80199	560.05470	253.50637	712.19871	483.45529	275.70765	733.09402	423.07989	243.25963	743.99374	174.79734	-42.79521	911.25671	168.41824	-47.21537	530.21860	175.19917	25.81777	523.53813	213.12216	-11.85407	528.86242	167.56435	256.11829	905.02830	153.09836	246.37384	524.29156	165.15335	173.79276	519.97186	200.26351	214.37789	523.13630	155.15775	-74.74093	104.37611	162.18983	-12.50705	98.95137	237.33260	-18.53455	491.54218	151.08920	261.89464	97.34404	153.55042	199.15846	94.07914	225.62921	212.97147	487.02156	120.29874	-37.52115	8.13712	268.07282	-33.75397	9.19193	255.06348	-99.20251	10.19651	280.32872	-69.26596	9.94537	159.07563	-45.15598	12.85865	355.72263	-84.23424	9.74445	110.90590	224.62463	3.51604	258.17768	212.16781	0.40183	249.03598	278.26933	0.15069	272.49298	246.92636	-0.05023	150.18507	230.04937	6.88139	348.59010	257.42425	-2.56169 
622	2.588	178.61475	107.38986	932.05157	276.26017	-10.94995	953.24826	273.99986	228.49227	947.27099	293.13715	11.85407	1030.70156	291.22844	209.80704	1025.77911	108.49490	57.11051	928.98759	107.59078	156.11211	926.52637	139.78764	108.54513	992.42697	215.08110	109.39903	1029.34538	296.00021	108.59536	1098.10904	373.45351	106.78711	1151.05054	509.37352	111.86025	1067.56974	608.52580	107.99261	1116.64359	529.71631	101.56328	1227.70018	455.57813	104.17520	1194.80010	571.00465	101.26191	1246.83747	818.73467	104.97886	1286.51848	725.76057	37.87276	1265.57293	725.45919	168.06664	1256.28055	698.33547	105.98345	1304.24936	576.02756	-61.17907	1237.59531	544.88550	279.52506	1212.98304	412.12994	-180.67415	995.23980	386.96515	-126.22578	984.23963	349.49422	325.08287	969.77364	330.90945	267.01801	972.23487	414.08887	-101.61351	766.44616	436.49106	-62.53526	780.10848	389.47660	-175.04849	983.98848	393.29402	239.89428	754.08979	405.70061	197.90274	771.36861	334.82732	319.30652	962.89225	588.03232	-63.74075	720.93857	515.45124	-102.86924	722.44545	451.61003	-89.10646	745.85222	560.15516	253.45614	712.19871	483.55575	275.65742	733.14425	423.18034	243.20940	744.04397	174.69688	-42.74498	911.25671	168.36801	-47.16514	530.21860	175.14894	25.86800	523.53813	213.02170	-11.80384	528.91264	167.46389	256.16852	905.02830	152.99790	246.47430	524.29156	165.05289	173.89322	519.97186	200.11282	214.42812	523.13630	155.15775	-74.74093	104.37611	162.18983	-12.50705	98.95137	237.28237	-18.48432	491.54218	151.03897	261.94487	97.34404	153.55042	199.20869	94.07914	225.47852	213.07193	487.02156	120.34897	-37.52115	8.13712	268.07282	-33.75397	9.24216	255.06348	-99.20251	10.19651	280.32872	-69.26596	9.94537	159.12586	-45.15598	12.85865	355.72263	-84.23424	9.79468	110.90590	224.62463	3.46581	258.12745	212.16781	0.40183	249.03598	278.26933	0.15069	272.44275	246.87613	-0.05023	150.18507	230.04937	6.88139	348.59010	257.42425	-2.56169 
623	2.592	178.51430	107.44009	932.05157	276.10948	-10.89972	953.34872	273.89940	228.54250	947.37145	292.88600	11.90430	1030.80202	291.02753	209.90750	1025.87957	108.39444	57.21097	928.88713	107.44009	156.16234	926.42591	139.58673	108.59536	992.42697	214.88018	109.44925	1029.34538	295.69884	108.64559	1098.20950	373.10191	106.83734	1151.25145	509.12237	111.86025	1067.92134	608.22443	108.04284	1117.09565	529.26425	101.61351	1228.10201	455.17629	104.22543	1195.05125	570.55259	101.31214	1247.23930	818.28261	105.07932	1287.12123	725.30851	37.92299	1266.12545	724.95690	168.11687	1256.88329	697.83318	106.03367	1304.80188	575.57550	-61.12884	1237.94692	544.48367	279.57529	1213.38488	412.07971	-180.47323	995.29003	386.91492	-126.02486	984.34008	349.54445	324.98241	969.77364	330.90945	266.91755	972.23487	414.13910	-101.46282	766.49639	436.59152	-62.43480	780.15871	389.42638	-174.84757	984.03871	393.39448	239.89428	754.08979	405.80107	197.90274	771.36861	334.82732	319.25629	962.89225	588.03232	-63.69053	720.88834	515.50147	-102.81901	722.44545	451.66026	-89.00600	745.90245	560.25562	253.40592	712.24894	483.65621	275.65742	733.14425	423.28080	243.20940	744.04397	174.54620	-42.69475	911.25671	168.31778	-47.16514	530.21860	175.09872	25.91823	523.53813	212.97147	-11.75361	528.91264	167.31320	256.21875	905.02830	152.84722	246.52453	524.29156	164.90220	173.94345	519.97186	200.01236	214.52858	523.13630	155.20798	-74.74093	104.37611	162.24006	-12.50705	98.95137	237.23214	-18.48432	491.54218	150.98874	261.94487	97.34404	153.50019	199.20869	94.07914	225.37807	213.17239	487.07179	120.34897	-37.47092	8.13712	268.12305	-33.70374	9.24216	255.11371	-99.15228	10.19651	280.37895	-69.26596	9.94537	159.17608	-45.10575	12.85865	355.77286	-84.23424	9.79468	110.85567	224.62463	3.46581	258.12745	212.11758	0.40183	248.98575	278.21910	0.15069	272.44275	246.87613	-0.05023	150.18507	230.04937	6.88139	348.53987	257.37402	-2.51146 
